<?xml version="1.0" encoding="UTF-8"?>
<!DOCTYPE svg PUBLIC "-//W3C//DTD SVG 1.1//EN" "http://www.w3.org/Graphics/SVG/1.1/DTD/svg11.dtd">
<svg version="1.2" width="529.16mm" height="202.18mm" viewBox="0 0 52916 20218" preserveAspectRatio="xMidYMid" fill-rule="evenodd" stroke-width="28.222" stroke-linejoin="round" xmlns="http://www.w3.org/2000/svg" xmlns:ooo="http://xml.openoffice.org/svg/export" xmlns:xlink="http://www.w3.org/1999/xlink" xmlns:presentation="http://sun.com/xmlns/staroffice/presentation" xmlns:smil="http://www.w3.org/2001/SMIL20/" xmlns:anim="urn:oasis:names:tc:opendocument:xmlns:animation:1.0" xmlns:svg="urn:oasis:names:tc:opendocument:xmlns:svg-compatible:1.0" xml:space="preserve">
 <defs class="ClipPathGroup">
  <clipPath id="presentation_clip_path" clipPathUnits="userSpaceOnUse">
   <rect x="0" y="0" width="52916" height="20218"/>
  </clipPath>
  <clipPath id="presentation_clip_path_shrink" clipPathUnits="userSpaceOnUse">
   <rect x="52" y="20" width="52811" height="20178"/>
  </clipPath>
 </defs>
 <defs class="TextShapeIndex">
  <g ooo:slide="id1" ooo:id-list="id3 id4 id5 id6 id7 id8 id9 id10 id11 id12 id13 id14 id15 id16 id17 id18 id19 id20"/>
 </defs>
 <defs class="EmbeddedBulletChars">
  <g id="bullet-char-template-57356" transform="scale(0.00048828125,-0.00048828125)">
   <path d="M 580,1141 L 1163,571 580,0 -4,571 580,1141 Z"/>
  </g>
  <g id="bullet-char-template-57354" transform="scale(0.00048828125,-0.00048828125)">
   <path d="M 8,1128 L 1137,1128 1137,0 8,0 8,1128 Z"/>
  </g>
  <g id="bullet-char-template-10146" transform="scale(0.00048828125,-0.00048828125)">
   <path d="M 174,0 L 602,739 174,1481 1456,739 174,0 Z M 1358,739 L 309,1346 659,739 1358,739 Z"/>
  </g>
  <g id="bullet-char-template-10132" transform="scale(0.00048828125,-0.00048828125)">
   <path d="M 2015,739 L 1276,0 717,0 1260,543 174,543 174,936 1260,936 717,1481 1274,1481 2015,739 Z"/>
  </g>
  <g id="bullet-char-template-10007" transform="scale(0.00048828125,-0.00048828125)">
   <path d="M 0,-2 C -7,14 -16,27 -25,37 L 356,567 C 262,823 215,952 215,954 215,979 228,992 255,992 264,992 276,990 289,987 310,991 331,999 354,1012 L 381,999 492,748 772,1049 836,1024 860,1049 C 881,1039 901,1025 922,1006 886,937 835,863 770,784 769,783 710,716 594,584 L 774,223 C 774,196 753,168 711,139 L 727,119 C 717,90 699,76 672,76 641,76 570,178 457,381 L 164,-76 C 142,-110 111,-127 72,-127 30,-127 9,-110 8,-76 1,-67 -2,-52 -2,-32 -2,-23 -1,-13 0,-2 Z"/>
  </g>
  <g id="bullet-char-template-10004" transform="scale(0.00048828125,-0.00048828125)">
   <path d="M 285,-33 C 182,-33 111,30 74,156 52,228 41,333 41,471 41,549 55,616 82,672 116,743 169,778 240,778 293,778 328,747 346,684 L 369,508 C 377,444 397,411 428,410 L 1163,1116 C 1174,1127 1196,1133 1229,1133 1271,1133 1292,1118 1292,1087 L 1292,965 C 1292,929 1282,901 1262,881 L 442,47 C 390,-6 338,-33 285,-33 Z"/>
  </g>
  <g id="bullet-char-template-9679" transform="scale(0.00048828125,-0.00048828125)">
   <path d="M 813,0 C 632,0 489,54 383,161 276,268 223,411 223,592 223,773 276,916 383,1023 489,1130 632,1184 813,1184 992,1184 1136,1130 1245,1023 1353,916 1407,772 1407,592 1407,412 1353,268 1245,161 1136,54 992,0 813,0 Z"/>
  </g>
  <g id="bullet-char-template-8226" transform="scale(0.00048828125,-0.00048828125)">
   <path d="M 346,457 C 273,457 209,483 155,535 101,586 74,649 74,723 74,796 101,859 155,911 209,963 273,989 346,989 419,989 480,963 531,910 582,859 608,796 608,723 608,648 583,586 532,535 482,483 420,457 346,457 Z"/>
  </g>
  <g id="bullet-char-template-8211" transform="scale(0.00048828125,-0.00048828125)">
   <path d="M -4,459 L 1135,459 1135,606 -4,606 -4,459 Z"/>
  </g>
  <g id="bullet-char-template-61548" transform="scale(0.00048828125,-0.00048828125)">
   <path d="M 173,740 C 173,903 231,1043 346,1159 462,1274 601,1332 765,1332 928,1332 1067,1274 1183,1159 1299,1043 1357,903 1357,740 1357,577 1299,437 1183,322 1067,206 928,148 765,148 601,148 462,206 346,322 231,437 173,577 173,740 Z"/>
  </g>
 </defs>
 <g>
  <g id="id2" class="Master_Slide">
   <g id="bg-id2" class="Background"/>
   <g id="bo-id2" class="BackgroundObjects"/>
  </g>
 </g>
 <g class="SlideGroup">
  <g>
   <g id="container-id1">
    <g id="id1" class="Slide" clip-path="url(#presentation_clip_path)">
     <g class="Page">
      <g class="com.sun.star.drawing.ClosedBezierShape">
       <g id="id3">
        <rect class="BoundingBox" stroke="none" fill="none" x="22492" y="7148" width="2699" height="4054"/>
        <path fill="rgb(217,222,215)" stroke="none" d="M 25190,10535 L 25126,10535 C 24973,10965 24704,11108 24148,11108 L 23458,11108 C 23291,11108 23198,11015 23198,10848 L 23198,7813 C 23198,7406 23264,7273 23428,7224 L 23428,7149 22494,7149 22494,7224 C 22655,7272 22724,7403 22724,7789 L 22723,10466 C 22723,10940 22666,11073 22492,11125 L 22492,11201 25184,11201 25190,10535 Z "/>
       </g>
      </g>
      <g class="com.sun.star.drawing.ClosedBezierShape">
       <g id="id4">
        <rect class="BoundingBox" stroke="none" fill="none" x="26099" y="7148" width="2698" height="4054"/>
        <path fill="rgb(217,222,215)" stroke="none" d="M 28796,10535 L 28733,10535 C 28580,10965 28310,11108 27755,11108 L 27066,11108 C 26898,11108 26806,11015 26806,10848 L 26806,7813 C 26806,7406 26872,7273 27036,7224 L 27036,7149 26101,7149 26101,7224 C 26261,7272 26330,7403 26330,7789 L 26330,10466 C 26330,10940 26272,11073 26099,11125 L 26099,11201 28790,11201 28796,10535 Z "/>
       </g>
      </g>
      <g class="com.sun.star.drawing.ClosedBezierShape">
       <g id="id5">
        <rect class="BoundingBox" stroke="none" fill="none" x="26812" y="12241" width="2734" height="4105"/>
        <path fill="rgb(217,222,215)" stroke="none" d="M 27792,16252 C 27622,16252 27528,16158 27528,15987 L 27529,12913 C 27529,12502 27596,12367 27762,12317 L 27762,12241 26814,12241 26814,12317 C 26978,12366 27048,12498 27048,12888 L 27048,15600 C 27048,16081 26989,16216 26812,16269 L 26812,16345 29539,16345 29545,15670 29481,15670 C 29326,16107 29053,16252 28490,16252 L 27792,16252 Z "/>
       </g>
      </g>
      <g class="com.sun.star.drawing.ClosedBezierShape">
       <g id="id6">
        <rect class="BoundingBox" stroke="none" fill="none" x="30431" y="12240" width="2733" height="4106"/>
        <path fill="rgb(217,222,215)" stroke="none" d="M 31410,16252 C 31240,16252 31146,16158 31146,15987 L 31146,12913 C 31146,12502 31213,12367 31379,12317 L 31379,12241 30433,12241 30433,12317 C 30596,12366 30665,12498 30665,12888 L 30665,15600 C 30665,16081 30607,16216 30431,16269 L 30431,16345 33158,16345 33163,15670 33099,15670 C 32944,16107 32671,16252 32108,16252 L 31410,16252 Z "/>
       </g>
      </g>
      <g class="com.sun.star.drawing.ClosedBezierShape">
       <g id="id7">
        <rect class="BoundingBox" stroke="none" fill="none" x="29466" y="7149" width="3541" height="4110"/>
        <path fill="rgb(217,222,215)" stroke="none" d="M 32776,7836 C 32776,7430 32842,7273 33006,7224 L 33006,7149 32448,7149 32448,7224 C 32609,7272 32678,7434 32678,7819 L 32683,9673 C 32683,10807 32017,11137 31519,11137 30766,11137 30170,10749 30170,9673 L 30172,7784 C 30175,7402 30241,7272 30401,7224 L 30401,7149 29467,7149 29467,7224 C 29627,7272 29696,7402 29696,7784 L 29695,9708 C 29695,10871 30505,11258 31334,11258 32138,11258 32775,10819 32775,9656 32775,9656 32776,7862 32776,7836 Z "/>
       </g>
      </g>
      <g class="com.sun.star.drawing.ClosedBezierShape">
       <g id="id8">
        <rect class="BoundingBox" stroke="none" fill="none" x="33882" y="7149" width="3142" height="4058"/>
        <path fill="rgb(217,222,215)" stroke="none" d="M 34588,9029 L 34588,7253 C 34588,7253 34891,7252 34992,7252 35744,7252 36051,7674 36051,8190 36051,8682 35739,9029 35073,9029 L 34588,9029 Z M 37023,11205 C 37023,11205 36836,10829 36515,10224 36459,10118 36365,9881 36252,9648 36063,9257 35857,9104 35602,9065 36219,8945 36544,8633 36544,8141 36544,7625 36230,7149 35010,7149 34852,7149 33882,7153 33882,7153 L 33882,7228 C 34061,7280 34113,7413 34113,7889 L 34113,10470 C 34113,10944 34061,11077 33882,11130 L 33882,11205 34819,11205 34819,11130 C 34640,11077 34588,10944 34588,10470 L 34588,9116 C 34588,9116 34897,9110 35192,9117 35458,9117 35514,9249 35682,9554 35879,9911 36083,10415 36136,10518 36313,10860 36485,11205 36485,11205 L 37023,11205 Z "/>
       </g>
      </g>
      <g class="com.sun.star.drawing.ClosedBezierShape">
       <g id="id9">
        <rect class="BoundingBox" stroke="none" fill="none" x="37230" y="7148" width="2855" height="4054"/>
        <path fill="rgb(217,222,215)" stroke="none" d="M 37461,10466 C 37461,10940 37404,11073 37230,11125 L 37230,11201 40084,11201 40084,10419 40020,10419 C 39812,10957 39505,11114 38949,11114 L 38196,11114 C 38029,11114 37936,11021 37936,10853 L 37936,9077 38676,9077 C 39207,9077 39278,9077 39286,9078 L 39286,8990 38676,8990 37936,8990 37936,7233 C 37936,7233 38404,7235 38787,7235 39377,7235 39818,7382 40020,7892 L 40084,7892 40084,7149 37230,7149 37230,7224 C 37404,7276 37461,7409 37461,7885 L 37461,10466 Z "/>
       </g>
      </g>
      <g class="com.sun.star.drawing.ClosedBezierShape">
       <g id="id10">
        <rect class="BoundingBox" stroke="none" fill="none" x="40238" y="12050" width="2" height="1"/>
        <path fill="rgb(217,222,215)" stroke="none" d="M 40238,12050 C 40238,12050 40240,12050 40238,12050 Z "/>
       </g>
      </g>
      <g class="com.sun.star.drawing.ClosedBezierShape">
       <g id="id11">
        <rect class="BoundingBox" stroke="none" fill="none" x="40732" y="7102" width="4110" height="4157"/>
        <path fill="rgb(217,222,215)" stroke="none" d="M 44390,9574 C 44419,10442 43961,11114 43035,11114 41999,11114 41235,9997 41195,8834 41160,7889 41675,7236 42554,7236 43590,7236 44349,8365 44390,9574 Z M 44841,9193 C 44841,7774 43770,7103 42792,7103 41565,7103 40732,7983 40732,9169 40732,10605 41808,11258 42792,11258 43764,11258 44841,10622 44841,9193 Z "/>
       </g>
      </g>
      <g class="com.sun.star.drawing.ClosedBezierShape">
       <g id="id12">
        <rect class="BoundingBox" stroke="none" fill="none" x="45295" y="7149" width="3639" height="4106"/>
        <path fill="rgb(217,222,215)" stroke="none" d="M 48320,7149 L 48320,7226 C 48483,7274 48599,7441 48599,7832 L 48598,10413 46077,7149 45899,7149 45295,7149 45295,7224 C 45456,7272 45570,7437 45570,7822 L 45569,11201 45667,11201 C 45667,11201 45669,7813 45668,7812 45668,7626 45683,7497 45714,7407 L 48621,11254 48698,11254 C 48698,11254 48699,7822 48699,7821 48699,7410 48766,7275 48932,7225 L 48932,7149 48320,7149 Z "/>
       </g>
      </g>
      <g class="com.sun.star.drawing.ClosedBezierShape">
       <g id="id13">
        <rect class="BoundingBox" stroke="none" fill="none" x="22311" y="12237" width="3635" height="4110"/>
        <path fill="rgb(217,222,215)" stroke="none" d="M 24169,12237 L 23728,12237 23728,12313 23800,12494 C 23800,12494 23074,14370 22730,15258 22729,15260 22729,15263 22729,15266 22577,15659 22425,16051 22311,16346 L 22419,16346 C 22460,16242 22629,15801 22814,15314 22814,15313 22815,15313 22816,15312 22919,15056 23849,12606 23849,12606 23849,12606 25049,15665 25116,15836 25194,16032 25150,16244 25035,16269 L 25035,16346 25945,16346 25945,16269 C 25822,16216 25700,16121 25523,15679 25263,15031 24169,12237 24169,12237 Z "/>
       </g>
      </g>
      <g class="com.sun.star.drawing.ClosedBezierShape">
       <g id="id14">
        <rect class="BoundingBox" stroke="none" fill="none" x="18165" y="7176" width="3566" height="4030"/>
        <path fill="rgb(217,222,215)" stroke="none" d="M 18272,11205 C 18313,11103 18478,10672 18659,10195 18660,10194 18661,10193 18661,10192 18762,9941 19675,7538 19675,7538 19675,7538 20851,10539 20917,10707 20993,10899 20951,11106 20838,11130 L 20838,11205 21730,11205 21730,11130 C 21609,11078 21490,10985 21316,10552 21062,9917 19989,7176 19989,7176 L 19556,7176 19556,7250 19626,7428 C 19626,7428 18914,9268 18577,10139 18576,10142 18576,10145 18576,10147 18427,10532 18278,10917 18166,11205 L 18272,11205 Z "/>
       </g>
      </g>
      <g class="com.sun.star.drawing.ClosedBezierShape">
       <g id="id15">
        <rect class="BoundingBox" stroke="none" fill="none" x="42586" y="12237" width="3635" height="4110"/>
        <path fill="rgb(217,222,215)" stroke="none" d="M 44446,12237 L 44005,12237 44005,12313 44076,12494 C 44076,12494 43350,14370 43006,15258 43005,15260 43005,15263 43005,15266 42853,15659 42701,16051 42586,16346 L 42695,16346 C 42737,16242 42905,15801 43090,15314 43090,15313 43092,15313 43092,15312 43195,15056 44125,12606 44125,12606 44125,12606 45324,15665 45391,15836 45469,16032 45425,16244 45310,16269 L 45310,16346 46220,16346 46220,16269 C 46097,16216 45975,16121 45798,15679 45539,15031 44446,12237 44446,12237 Z "/>
       </g>
      </g>
      <g class="com.sun.star.drawing.ClosedBezierShape">
       <g id="id16">
        <rect class="BoundingBox" stroke="none" fill="none" x="34031" y="12241" width="948" height="4105"/>
        <path fill="rgb(217,222,215)" stroke="none" d="M 34745,12913 C 34745,12502 34812,12367 34978,12317 L 34978,12241 34031,12241 34031,12317 C 34194,12366 34263,12498 34263,12888 L 34265,15600 C 34265,16081 34206,16216 34031,16269 L 34031,16345 34978,16345 34978,16269 C 34802,16216 34744,16081 34744,15600 34744,15600 34746,12914 34745,12913 Z "/>
       </g>
      </g>
      <g class="com.sun.star.drawing.ClosedBezierShape">
       <g id="id17">
        <rect class="BoundingBox" stroke="none" fill="none" x="35991" y="12200" width="2859" height="4206"/>
        <path fill="rgb(217,222,215)" stroke="none" d="M 36485,13069 C 36485,12570 36878,12295 37365,12295 37816,12295 38092,12625 38288,12759 38320,12781 38366,12820 38366,12820 38366,12820 38637,12821 38663,12821 L 38663,12549 C 38663,12549 38616,12515 38601,12501 38357,12284 37816,12200 37553,12200 36691,12200 36122,12635 36122,13321 36122,13942 36561,14189 37254,14464 37746,14663 38467,14933 38467,15519 38467,15994 37998,16299 37529,16299 36900,16299 36539,15555 36440,15426 36424,15405 36386,15350 36386,15350 L 35991,15350 35991,15776 C 35991,15776 36110,15865 36257,15979 36553,16210 37049,16405 37477,16405 38169,16405 38849,15959 38849,15226 38848,14563 38238,14306 37588,14048 37090,13842 36485,13620 36485,13069 Z "/>
       </g>
      </g>
      <g class="com.sun.star.drawing.ClosedBezierShape">
       <g id="id18">
        <rect class="BoundingBox" stroke="none" fill="none" x="39413" y="12241" width="3022" height="4106"/>
        <path fill="rgb(217,222,215)" stroke="none" d="M 39414,12886 L 39479,12886 C 39678,12464 39875,12335 40292,12335 L 40487,12335 C 40597,12335 40686,12424 40686,12534 L 40686,15600 C 40686,16081 40633,16216 40452,16269 L 40452,16346 41407,16346 41407,16269 C 41225,16216 41173,16082 41173,15600 L 41173,12534 C 41173,12424 41262,12335 41372,12335 L 41528,12335 C 41971,12335 42170,12464 42370,12886 L 42434,12886 42434,12241 39414,12241 39414,12886 Z "/>
       </g>
      </g>
      <g class="com.sun.star.drawing.ClosedBezierShape">
       <g id="id19">
        <rect class="BoundingBox" stroke="none" fill="none" x="5764" y="7103" width="11365" height="9411"/>
        <path fill="rgb(217,222,215)" stroke="none" d="M 9819,9457 C 10621,11505 11961,14923 12066,15191 12167,15446 12177,15713 12116,15904 10381,15212 9450,13338 9460,11400 9460,10649 9588,10001 9819,9457 Z M 16925,13891 C 16925,13891 16914,13923 16898,13959 16615,14622 15427,16001 13929,16167 L 13929,16162 C 13652,16043 13378,15830 12980,14836 12568,13808 11222,10373 10467,8445 11128,7733 12065,7370 13125,7370 14162,7370 14606,8178 15021,8710 15145,8870 15373,9168 15373,9168 L 15681,9168 16283,9168 16283,8371 C 16283,8371 16162,8212 16100,8136 15724,7671 14830,6972 12705,7124 11910,7181 11059,7519 10324,8080 10090,7484 9941,7103 9941,7103 L 8950,7103 8950,7274 9110,7681 C 9110,7681 7480,11896 6706,13890 6703,13897 6705,13903 6704,13909 6362,14791 6021,15672 5764,16334 L 6006,16334 C 6100,16100 6478,15110 6895,14018 6896,14016 6899,14015 6899,14013 7131,13436 9222,7932 9222,7932 9222,7932 9353,8269 9560,8796 8849,9614 8368,10692 8368,11946 8368,14245 9902,15821 11884,16332 L 11884,16334 11890,16334 C 12348,16451 12830,16512 13323,16512 15629,16512 16765,14844 17089,14080 17130,13979 17127,13891 17127,13891 L 16925,13891 Z "/>
       </g>
      </g>
      <g class="com.sun.star.drawing.ClosedBezierShape">
       <g id="id20">
        <rect class="BoundingBox" stroke="none" fill="none" x="18166" y="12166" width="3931" height="4221"/>
        <path fill="rgb(217,222,215)" stroke="none" d="M 22005,15210 C 22005,15210 22000,15225 21992,15241 21857,15558 21261,16238 20528,16238 19316,16238 18651,15189 18657,14093 18657,12904 19374,12286 20301,12286 20766,12286 20964,12648 21151,12887 21206,12959 21309,13092 21309,13092 L 21447,13092 21717,13092 21717,12735 C 21717,12735 21662,12664 21635,12630 21466,12421 21065,12107 20112,12175 19217,12239 18166,13097 18166,14338 18166,15609 19212,16385 20389,16385 21424,16385 21933,15638 22078,15295 22097,15250 22095,15210 22095,15210 L 22005,15210 Z "/>
       </g>
      </g>
     </g>
    </g>
   </g>
  </g>
 </g>
</svg>